# Blender 5.1.0
# www.blender.org
mtllib Leef.mtl
o Plane
v -1.307742 -0.631175 0.976918
v 0.692258 -0.631175 0.976918
v -1.307742 -0.631175 -1.023082
v 0.692258 -0.631175 -1.023082
v -0.081024 -0.775674 0.721784
v 1.208372 0.753201 0.721784
v -0.081024 -0.775674 -1.278216
v 1.208372 0.753201 -1.278216
v 0.703106 0.940748 1.006599
v 1.229056 -0.147280 -0.587004
v -0.826180 1.712979 -0.025362
v -0.300231 0.624951 -1.618965
v 0.763048 -0.765400 -0.869760
v -1.184629 -0.506437 -0.496271
v 1.214337 0.531103 0.584689
v -0.733340 0.790066 0.958177
v -1.061324 -0.967418 -0.609201
v -0.423052 -0.848802 1.282501
v -0.586893 0.955123 -0.889827
v 0.051378 1.073739 1.001876
v 0.918048 0.849112 -0.538526
v -1.012895 1.209499 -0.162255
v 1.014920 -0.321743 1.080028
v -0.916023 0.038644 1.456299
v 0.679872 -0.591694 -1.308060
v 0.298295 1.325143 -0.883635
v -1.074516 -1.118678 -0.505308
v -1.456093 0.798159 -0.080883
vn -0.0000 1.0000 -0.0000
vn -0.7644 0.6447 -0.0000
vn 0.5884 0.7450 -0.3144
vn -0.0269 0.7503 -0.6605
vn -0.9175 0.2691 0.2927
vn 0.2560 0.7904 0.5565
vn 0.4406 -0.1096 0.8910
vt 0.000000 0.000000
vt 1.000000 0.000000
vt 1.000000 1.000000
vt 0.000000 1.000000
s 0
f 1/1/1 2/2/1 4/3/1 3/4/1
f 5/1/2 6/2/2 8/3/2 7/4/2
f 9/1/3 10/2/3 12/3/3 11/4/3
f 13/1/4 14/2/4 16/3/4 15/4/4
f 17/1/5 18/2/5 20/3/5 19/4/5
f 21/1/6 22/2/6 24/3/6 23/4/6
f 25/1/7 26/2/7 28/3/7 27/4/7
