<?xml version="1.0" encoding="utf-8"?>
<svg xmlns="http://www.w3.org/2000/svg" viewBox="0 0 500 500" xmlns:bx="https://boxy-svg.com" width="500px" height="500px"><defs><bx:export><bx:file format="svg" path="Slot.svg"/></bx:export></defs><rect x="46.281" y="46.281" width="407.439" height="407.439" style="fill: rgb(216, 216, 216); stroke: rgb(0, 0, 0);"/><g><rect x="52.983" y="52.983" width="394.035" height="394.035" style="stroke: rgb(0, 0, 0); transform-box: fill-box; transform-origin: 50% 50%; fill: rgb(88, 88, 88);"/><g><path d="M 76.676 19.187 L 102.282 46.34 C 45.688 71.704 77.259 29.642 51.895 86.236 L 19.188 76.675 C 19.188 44.925 44.926 19.187 76.676 19.187 Z M 423.325 19.187 C 455.075 19.187 480.813 44.925 480.813 76.675 L 450.699 95.855 C 425.335 39.26 416.277 77.558 392.099 19.187 L 423.325 19.187 Z M 480.813 423.324 C 480.813 455.074 481.221 480.812 449.471 480.812 L 396.592 456.3 C 450.101 428.758 406.425 454.002 460.386 422.737 L 480.813 423.324 Z M 76.676 480.812 C 44.926 480.812 19.188 455.074 19.188 423.324 L 43.7 417.019 C 69.064 473.612 63.156 430.119 119.749 455.483 L 76.676 480.812 Z" style="stroke: rgb(0, 0, 0); fill: rgb(137, 137, 137);"/></g></g></svg>